<svg xmlns="http://www.w3.org/2000/svg" viewBox="0 0 47.3 53.86"><defs><style>.cls-1{fill:#fff;}</style></defs><title>logo</title><g id="Слой_2" data-name="Слой 2"><g id="Layer_1" data-name="Layer 1"><path class="cls-1" d="M25.06,35.12,30,33.82l.47,3.89,3.76-1L30.89,9.43l-2.82.75-.94.25-2.81.74L20.8,40.27l3.76-1Zm2.53-21,2,16.24L25.5,31.48Z"/><path class="cls-1" d="M3.35,8.22a1.09,1.09,0,0,0,.48-.94V3.54a.72.72,0,0,0-.93-.76L0,3.54,0,15.19l3.05-.81A1.33,1.33,0,0,0,4,13.16C4,12.81,4,9.44,4,9S3.76,8.21,3.35,8.22ZM1.43,4.67l1-.27V7.8l-1,.26ZM2.59,13l-1.18.31V9.56L2.6,9.25Z"/><path class="cls-1" d="M6,2l-1.19,12,1.4-.37.23-2.33L8,10.81,8.17,13l1.37-.36L8.45,1.32Zm.59,7.71.65-6.54.6,6.21Z"/><path class="cls-1" d="M13.75,5.79a1.09,1.09,0,0,0,.48-1V.78A.71.71,0,0,0,13.32,0L10.44.79l0,11.65,1.39-.37,0-4.94L13,6.81v4.94l1.39-.37,0-4.79C14.4,6.18,14.17,5.77,13.75,5.79Zm-.92-.43-1,.27V1.92l1-.27Z"/><path class="cls-1" d="M18.62.79l-2.11.56a1.29,1.29,0,0,0-.94,1.24V6a.72.72,0,0,0,.93.74l1.65-.44V8.9L17,9.21v-1l-1.4.38v1.52a.72.72,0,0,0,.93.74l2.12-.56A1.37,1.37,0,0,0,19.53,9V5.43a.72.72,0,0,0-.93-.75L17,5.12V2.72l1.18-.31v.93L19.54,3V1.52A.7.7,0,0,0,18.62.79Z"/><polygon class="cls-1" points="25.31 46.79 24.11 47.11 24.13 41.65 22.71 42.02 22.67 53.86 24.09 53.48 24.11 48.63 25.31 48.31 25.29 53.17 26.71 52.79 26.75 40.96 25.33 41.33 25.31 46.79"/><path class="cls-1" d="M31.11,39.8,29,40.37A1.39,1.39,0,0,0,28,41.63l0,9.83a.73.73,0,0,0,.94.75l2.15-.57a1.38,1.38,0,0,0,1-1.25l0-9.82A.73.73,0,0,0,31.11,39.8ZM30.6,50.24l-1.2.32,0-8.79,1.2-.32Z"/><path class="cls-1" d="M35.91,48.84l-1.21.32,0-10.32-1.42.38,0,10.83a.72.72,0,0,0,.94.75l2.15-.57A1.34,1.34,0,0,0,37.32,49l0-10.84-1.42.37Z"/><path class="cls-1" d="M41.72,37l-2.15.56a1.3,1.3,0,0,0-1,1.27l0,4.48a.73.73,0,0,0,.95.75l1.67-.45v3.82l-1.2.32v-2l-1.42.38v2.57a.73.73,0,0,0,.94.75l2.15-.57a1.38,1.38,0,0,0,1-1.25V42.73A.72.72,0,0,0,41.7,42L40,42.41V39l1.19-.32v2l1.42-.38V37.74A.7.7,0,0,0,41.72,37Z"/><polygon class="cls-1" points="43.89 48.25 47.27 47.35 47.27 45.83 45.31 46.35 45.33 42.34 47.28 41.82 47.29 40.3 45.33 40.82 45.34 37.56 47.3 37.04 47.3 35.52 43.92 36.41 43.89 48.25"/><path class="cls-1" d="M42.62,6.33l-3,.8-3.75,1h0v4h0l-.07,20.15h0v4h0l3.76-1,3-.8a6.82,6.82,0,0,0,4.72-6.28h0l0-18.12C47.31,7.34,45.21,5.64,42.62,6.33Zm.87,22.91a1.37,1.37,0,0,1-1,1.26l-3,.8.06-20.15,3-.8a.73.73,0,0,1,.94.77Z"/><polygon class="cls-1" points="19.25 40.68 19.34 12.49 16.04 13.36 15.58 13.48 12.81 14.22 9.64 40.45 6.63 15.85 3.85 16.59 3.4 16.71 0.09 17.58 0 45.77 3.76 44.78 3.83 20.23 6.74 43.99 9.29 43.32 9.97 43.14 12.53 42.46 15.57 17.23 15.49 41.67 19.25 40.68"/></g></g></svg>